<?xml version="1.0" standalone="no"?>
<!DOCTYPE svg PUBLIC "-//W3C//DTD SVG 20010904//EN"
 "http://www.w3.org/TR/2001/REC-SVG-20010904/DTD/svg10.dtd">
<svg version="1.0" xmlns="http://www.w3.org/2000/svg"
 width="134.000000pt" height="168.000000pt" viewBox="0 0 134.000000 168.000000"
 preserveAspectRatio="xMidYMid meet">

<g transform="translate(0.000000,168.000000) scale(0.100000,-0.100000)"
fill="#87CEFA" stroke="none">
<path d="M261 1618 c-53 -27 -79 -60 -91 -114 -5 -21 -10 -181 -10 -355 l0
-315 -30 -29 c-49 -47 -65 -104 -64 -230 1 -228 93 -389 277 -482 75 -38 166
-53 323 -53 271 0 418 70 528 253 54 91 66 163 66 403 0 187 -2 212 -20 248
-37 77 -125 111 -210 82 l-45 -15 -30 29 c-41 39 -111 58 -162 42 -33 -11 -39
-10 -48 5 -5 10 -26 34 -47 54 -40 40 -88 54 -149 44 l-39 -7 0 163 c0 142 -3
168 -20 203 -41 84 -146 118 -229 74z m123 -99 l26 -20 0 -305 0 -304 -59 0
c-33 0 -67 -3 -76 -6 -14 -6 -16 21 -13 306 l3 312 24 19 c30 25 62 24 95 -2z
m250 -450 c24 -19 26 -26 26 -106 0 -84 0 -85 -22 -79 -13 3 -47 6 -77 6 l-53
0 4 81 c3 70 6 83 27 100 30 25 62 24 95 -2z m250 -100 c26 -20 26 -22 26
-154 0 -132 0 -134 -26 -154 -33 -26 -65 -27 -95 -2 -23 19 -24 24 -24 156 0
132 1 137 24 156 30 25 62 24 95 -2z m250 -50 c25 -20 26 -23 26 -135 0 -64
-4 -124 -10 -134 -14 -27 -62 -41 -91 -26 -41 20 -50 52 -47 169 3 101 5 110
27 128 30 25 62 24 95 -2z m-500 -150 c36 -28 36 -80 0 -108 -23 -18 -41 -21
-135 -21 -105 0 -109 -1 -125 -25 -15 -23 -15 -27 0 -50 16 -24 20 -25 130
-25 100 0 118 3 161 25 l49 24 32 -20 c50 -30 121 -35 168 -10 l39 20 29 -24
c33 -28 83 -40 140 -32 l41 5 -6 -50 c-13 -104 -95 -226 -192 -283 -80 -46
-151 -57 -329 -52 -176 5 -205 11 -286 59 -117 71 -178 185 -187 354 -5 91 -4
106 16 147 36 75 72 87 267 87 148 0 163 -2 188 -21z"/>
</g>
</svg>
